<svg width="512" height="512" viewBox="0 0 512 512" fill="none" xmlns="http://www.w3.org/2000/svg">
  <defs>
    <linearGradient id="lc-bg" x1="56" y1="40" x2="460" y2="488" gradientUnits="userSpaceOnUse">
      <stop offset="0" stop-color="#0A1E29"/>
      <stop offset="0.55" stop-color="#103849"/>
      <stop offset="1" stop-color="#081218"/>
    </linearGradient>
    <linearGradient id="lc-accent" x1="108" y1="92" x2="390" y2="424" gradientUnits="userSpaceOnUse">
      <stop offset="0" stop-color="#32E0C4"/>
      <stop offset="1" stop-color="#1EA1D2"/>
    </linearGradient>
    <linearGradient id="lc-hot" x1="296" y1="180" x2="448" y2="292" gradientUnits="userSpaceOnUse">
      <stop offset="0" stop-color="#F66B3D"/>
      <stop offset="1" stop-color="#FFB347"/>
    </linearGradient>
    <filter id="lc-glow" x="0" y="0" width="512" height="512" filterUnits="userSpaceOnUse" color-interpolation-filters="sRGB">
      <feGaussianBlur stdDeviation="14" result="blur"/>
      <feBlend in="SourceGraphic" in2="blur" mode="screen"/>
    </filter>
  </defs>

  <rect x="20" y="20" width="472" height="472" rx="136" fill="url(#lc-bg)"/>
  <rect x="20" y="20" width="472" height="472" rx="136" stroke="#2A5566" stroke-width="3"/>

  <g filter="url(#lc-glow)">
    <path d="M126 356C164 270 238 198 344 154" stroke="url(#lc-accent)" stroke-width="34" stroke-linecap="round"/>
    <path d="M166 390C182 324 234 260 310 214" stroke="#57EFE2" stroke-opacity="0.85" stroke-width="16" stroke-linecap="round"/>
  </g>

  <path d="M328 176L372 122C386 108 410 108 424 122C438 136 438 160 424 174L368 230"
        stroke="url(#lc-hot)" stroke-width="22" stroke-linecap="round" stroke-linejoin="round"/>
  <path d="M286 218L334 168"
        stroke="#7FF9EC" stroke-width="14" stroke-linecap="round"/>

  <path d="M132 334C132 260 192 200 266 200"
        stroke="#9CF2E5" stroke-width="12" stroke-linecap="round" stroke-opacity="0.6"/>
  <path d="M116 372C116 280 190 206 282 206"
        stroke="#4EC8D6" stroke-width="8" stroke-linecap="round" stroke-opacity="0.45"/>

  <circle cx="348" cy="236" r="9" fill="#FFB347"/>
</svg>
